<?xml version="1.0" encoding="iso-8859-1"?>
<!-- Uploaded to: SVG Repo, www.svgrepo.com, Generator: SVG Repo Mixer Tools -->
<!DOCTYPE svg PUBLIC "-//W3C//DTD SVG 1.1//EN" "http://www.w3.org/Graphics/SVG/1.1/DTD/svg11.dtd">
<svg fill="#000000" version="1.1" id="Capa_1" xmlns="http://www.w3.org/2000/svg" xmlns:xlink="http://www.w3.org/1999/xlink" 
	 width="800px" height="800px" viewBox="0 0 53.938 53.938"
	 xml:space="preserve">
<g>
	<g>
		<g>
			<path d="M26.97,53.938C12.099,53.938,0,41.839,0,26.969C0,12.099,12.099,0,26.97,0c14.869,0,26.968,12.099,26.968,26.969
				C53.938,41.839,41.839,53.938,26.97,53.938z M26.97,3.946c-12.695,0-23.023,10.329-23.023,23.023
				c0,12.693,10.328,23.021,23.023,23.021c12.692,0,23.021-10.328,23.021-23.021C49.99,14.275,39.662,3.946,26.97,3.946z"/>
		</g>
		<g>
			<g>
				<circle cx="20.871" cy="24.364" r="2.604"/>
			</g>
			<g>
				<circle cx="33.066" cy="24.364" r="2.604"/>
			</g>
		</g>
		<g>
			<path d="M40.333,37.466H13.605c-1.09,0-1.973-0.884-1.973-1.973c0-1.091,0.883-1.974,1.973-1.974h26.729
				c1.09,0,1.974,0.883,1.974,1.974C42.307,36.582,41.423,37.466,40.333,37.466z"/>
		</g>
	</g>
</g>
</svg>